<svg xmlns="http://www.w3.org/2000/svg" xmlns:xlink="http://www.w3.org/1999/xlink" width="500" zoomAndPan="magnify" viewBox="0 0 375 374.999991" height="500" preserveAspectRatio="xMidYMid meet" version="1.2"><defs><clipPath id="ce477477c1"><path d="M 24 28 L 355.761719 28 L 355.761719 360.378906 L 24 360.378906 Z M 24 28 "/></clipPath></defs><g id="fadf842fa0"><g clip-rule="nonzero" clip-path="url(#ce477477c1)"><path style=" stroke:none;fill-rule:nonzero;fill:#25353a;fill-opacity:1;" d="M 356.214844 268.300781 C 356.214844 318.703125 314.90625 360.542969 264.5 360.542969 L 117.15625 360.542969 C 66.75 360.542969 24.390625 318.703125 24.390625 268.300781 L 24.390625 120.921875 C 24.390625 70.519531 66.75 28.683594 117.15625 28.683594 L 264.5 28.683594 C 314.90625 28.683594 356.214844 70.519531 356.214844 120.921875 Z M 356.214844 268.300781 "/></g><path style=" stroke:none;fill-rule:nonzero;fill:#ffffff;fill-opacity:1;" d="M 75.742188 236.753906 C 76.457031 219.488281 125.066406 241.390625 137.015625 221.617188 C 146.152344 207.460938 144.773438 187.710938 151.117188 172.222656 C 161.382812 137.019531 201.039062 151.558594 227.535156 149.65625 C 254.816406 147.445312 245.816406 85.503906 259.066406 86.261719 C 265.191406 87.527344 268.949219 94.171875 272.757812 99.601562 C 285.625 118.980469 300.679688 161.800781 299.246094 188.769531 C 299.875 231.269531 263.21875 221.066406 234.421875 216.976562 C 174.019531 206.132812 218.449219 318.203125 155.261719 300.703125 C 124.550781 291.445312 87.023438 264.234375 75.855469 237.589844 L 75.734375 236.746094 Z M 75.742188 236.753906 "/></g></svg>