<svg xmlns="http://www.w3.org/2000/svg" xmlns:xlink="http://www.w3.org/1999/xlink" width="500" zoomAndPan="magnify" viewBox="0 0 375 374.999991" height="500" preserveAspectRatio="xMidYMid meet" version="1.2"><defs><clipPath id="913c3d1f16"><path d="M 18 18 L 359.882812 18 L 359.882812 359.273438 L 18 359.273438 Z M 18 18 "/></clipPath></defs><g id="ae50620b36"><g clip-rule="nonzero" clip-path="url(#913c3d1f16)"><path style=" stroke:none;fill-rule:nonzero;fill:#25353a;fill-opacity:1;" d="M 18.851562 188.707031 C 18.851562 282.894531 95.214844 359.242188 189.414062 359.242188 C 283.613281 359.242188 360 282.894531 360 188.707031 C 360 94.519531 283.628906 18.171875 189.414062 18.171875 C 95.199219 18.171875 18.851562 94.519531 18.851562 188.707031 Z M 18.851562 188.707031 "/></g><path style=" stroke:none;fill-rule:nonzero;fill:#ffffff;fill-opacity:1;" d="M 57.050781 234.644531 C 57.800781 216.546875 108.78125 239.5 121.316406 218.777344 C 130.894531 203.9375 129.445312 183.238281 136.105469 166.996094 C 146.867188 130.09375 188.453125 145.332031 216.238281 143.347656 C 244.84375 141.027344 235.414062 76.085938 249.300781 76.886719 C 255.726562 78.214844 259.664062 85.175781 263.664062 90.867188 C 277.160156 111.183594 292.949219 156.070312 291.441406 184.355469 C 292.101562 228.910156 253.664062 218.214844 223.46875 213.929688 C 160.121094 202.554688 206.71875 320.046875 140.460938 301.703125 C 108.246094 291.992188 68.902344 263.472656 57.1875 235.539062 L 57.050781 234.652344 Z M 57.050781 234.644531 "/></g></svg>