<svg xmlns="http://www.w3.org/2000/svg" xmlns:xlink="http://www.w3.org/1999/xlink" width="500" zoomAndPan="magnify" viewBox="0 0 375 374.999991" height="500" preserveAspectRatio="xMidYMid meet" version="1.2"><defs><clipPath id="ae25dcb5e7"><path d="M 9 15 L 355.917969 15 L 355.917969 362.203125 L 9 362.203125 Z M 9 15 "/></clipPath></defs><g id="9ea9e49cfc"><g clip-rule="nonzero" clip-path="url(#ae25dcb5e7)"><path style=" stroke:none;fill-rule:nonzero;fill:#4bbfda;fill-opacity:1;" d="M 9.085938 188.816406 C 9.085938 284.609375 86.726562 362.257812 182.492188 362.257812 C 278.257812 362.257812 355.910156 284.601562 355.910156 188.816406 C 355.910156 93.027344 278.273438 15.367188 182.492188 15.367188 C 86.710938 15.367188 9.085938 93.019531 9.085938 188.816406 Z M 9.085938 188.816406 "/></g><path style=" stroke:none;fill-rule:nonzero;fill:#ffffff;fill-opacity:1;" d="M 47.917969 235.535156 C 48.675781 217.132812 100.511719 240.472656 113.246094 219.398438 C 122.988281 204.304688 121.519531 183.246094 128.28125 166.730469 C 139.222656 129.195312 181.5 144.703125 209.746094 142.679688 C 238.832031 140.320312 229.234375 74.28125 243.363281 75.085938 C 249.898438 76.4375 253.898438 83.515625 257.964844 89.308594 C 271.6875 109.972656 287.738281 155.625 286.207031 184.386719 C 286.878906 229.699219 247.796875 218.820312 217.105469 214.460938 C 152.703125 202.898438 200.078125 322.386719 132.71875 303.722656 C 99.972656 293.851562 59.96875 264.839844 48.058594 236.433594 L 47.925781 235.535156 Z M 47.917969 235.535156 "/></g></svg>