<?xml version="1.0" encoding="UTF-8"?>
<svg id="Capa_1" data-name="Capa 1" xmlns="http://www.w3.org/2000/svg" viewBox="0 0 992.86 231.99">
  <defs>
    <style>
      .cls-1 {
        letter-spacing: -.06em;
      }

      .cls-2 {
        letter-spacing: -.02em;
      }

      .cls-3 {
        letter-spacing: 0em;
      }

      .cls-4 {
        font-size: 120.89px;
      }

      .cls-4, .cls-5 {
        fill: #4bbfda;
      }

      .cls-6 {
        font-family: Lato-Regular, Lato;
      }

      .cls-7 {
        font-family: Lato-Bold, Lato;
        font-weight: 700;
      }

      .cls-8 {
        letter-spacing: -.02em;
      }
    </style>
  </defs>
  <text class="cls-4" transform="translate(0 104.15)"><tspan class="cls-7"><tspan x="0" y="0" xml:space="preserve">      </tspan><tspan class="cls-1" x="139.98" y="0">W</tspan><tspan x="259.36" y="0">AISTEN</tspan></tspan><tspan class="cls-6"><tspan x="0" y="105.78">P</tspan><tspan class="cls-2" x="73.86" y="105.78">R</tspan><tspan class="cls-3" x="148.94" y="105.78">OGRAM</tspan><tspan class="cls-8" x="605.41" y="105.78">A</tspan><tspan x="685.08" y="105.78">CIÓN</tspan></tspan></text>
  <path class="cls-5" d="M6.39,79.19c.3-7.27,20.79,1.95,25.82-6.38,3.85-5.96,3.27-14.28,5.94-20.81,4.32-14.83,21.03-8.7,32.2-9.51,11.49-.93,7.7-27.03,13.28-26.71,2.58.53,4.17,3.33,5.77,5.62,5.42,8.17,11.77,26.21,11.16,37.57.27,17.91-15.18,13.61-27.31,11.89-25.45-4.57-6.73,42.65-33.35,35.28-12.94-3.9-28.75-15.37-33.46-26.59l-.05-.36Z"/>
</svg>